<?xml version="1.0" encoding="UTF-8"?>
<svg xmlns="http://www.w3.org/2000/svg" viewBox="0 0 241.3 117.66">
  <defs>
    <style>
      .cls-1 {
        fill: #080000;
        stroke: #000;
        stroke-miterlimit: 10;
      }

      .cls-2 {
        fill: #fff;
        stroke-width: 0px;
      }
    </style>
  </defs>
  <g id="Layer_2" data-name="Layer 2">
    <rect class="cls-1" x=".5" y=".5" width="240.3" height="116.66"/>
  </g>
  <g id="Laag_1" data-name="Laag 1">
    <path class="cls-2" d="M93.7,73.05l-1.18.88c-11.13,8.3-13.92,9.65-16.31,9.65-4.33,0-10.14-3.75-15.17-9.78-5.18-6.22-8.27-13.38-8.27-19.16s1.51-9.84,5.06-14.08c3.7-4.42,9.96-9.21,20.3-15.52l.54-.32.6.19c6.89,2.22,8.39,2.65,9.42,2.65.15,0,.47,0,1.59-.82l1.23-.91.76,1.33.62,1.08.6,1.04-.96.72-8.6,6.51-.58.44-.69-.24c-7.75-2.68-8.48-2.79-9.53-2.79-1.35.1-10.04,5.98-10.04,14.52,0,9.1,4.46,15.54,8.2,19.35,4.3,4.38,9.18,6.71,11.04,6.71,1.51,0,3.74-1.19,7.47-3.99l1.02-.76.83.96,1.08,1.24.97,1.11h0Z"/>
    <g>
      <path class="cls-2" d="M112,63.01c0,6.19,3.29,9.79,12.43,9.79,7.5,0,12.33-2.1,12.33-2.1V27.66s8.22,0,8.22,4.99v46.34c-2.36-1.2-4.62-1.6-6.68-1.6-4.93,0-9.45,2.1-15.31,2.1-9.35,0-19.22-3.2-19.22-14.98V27.66s8.22.1,8.22,4.99v30.36h0Z"/>
      <path class="cls-2" d="M166.47,35.95v43.05s-8.22,0-8.22-4.99V27.66c2.36,1.2,4.42,1.6,6.27,1.6,4.32,0,7.81-2.1,13.46-2.1,7.19,0,12.13,2.7,12.13,8.09,0,2.4-.93,4.49-2.88,7.09,0-5.49-4.93-8.09-10.89-8.09-5.45,0-9.87,1.7-9.87,1.7h0Z"/>
      <path class="cls-2" d="M236.23,68.9c0,6.99-9.66,10.59-19.73,10.59-13.05,0-21.17-5.99-21.17-16.08v-20.18c0-10.09,7.71-16.08,20.76-16.08s19.52,5.99,19.52,15.08c0,8.09-5.65,14.78-20.76,14.78-3.49,0-8.84-.7-11.3-2.4v7.29c0,6.99,4.01,10.59,13.57,10.59,8.94,0,16.44-3.6,16.44-10.59,1.85,2.6,2.67,4.89,2.67,6.99h0ZM203.55,48.23c.1.2,6.27,1.8,10.69,1.8,9.76,0,13.15-2.9,13.15-7.79s-2.88-8.59-11.3-8.59c-9.15,0-12.54,4.1-12.54,11.09v3.5h0Z"/>
    </g>
    <path class="cls-2" d="M65.04,23.15c-16.78-4.92-18.61-5.21-21.43-5.21-4.65,0-24.42,12.24-24.42,28.84,0,31.93,34.39,49.8,44.19,49.8,4.32,0,9.8-2.67,17.78-7.74l2.33,2.25c-22.26,14.07-28.74,17.02-33.23,17.02-17.61,0-47.35-28.28-47.35-50.08,0-17.58,9.47-29.12,53-51.62,15.45,4.22,18.44,4.92,21.1,4.92,1.33,0,2.66-.42,5.15-1.97l1.33,1.97-18.44,11.82h-.01Z"/>
    <g>
      <path class="cls-2" d="M93.66,104.62c-.27-.33-.41-.77-.41-1.33v-8.57h.74v8.55c0,.41.08.71.23.9s.44.28.85.28h.51v.66h-.64c-.58,0-1.01-.17-1.28-.5h0Z"/>
      <path class="cls-2" d="M98.11,94.72h.92v.92h-.92v-.92ZM98.2,98.08h.74v7.03h-.74v-7.03Z"/>
      <path class="cls-2" d="M106.43,104.98c-.35.15-.76.23-1.24.23s-.92-.08-1.3-.25-.7-.4-.97-.72-.47-.69-.61-1.14-.21-.95-.21-1.5.07-1.06.21-1.5.35-.83.61-1.14.59-.55.97-.72c.38-.17.81-.25,1.3-.25s.89.07,1.24.23c.35.15.71.44,1.08.85l-.51.47c-.3-.33-.59-.56-.85-.69-.27-.13-.59-.2-.96-.2-.83,0-1.45.31-1.87.93-.18.25-.3.53-.37.84s-.11.7-.11,1.17.04.87.11,1.17c.07.31.2.59.37.84.42.62,1.04.93,1.87.93.37,0,.69-.07.96-.2s.55-.36.85-.69l.51.47c-.37.42-.73.7-1.08.85v.02Z"/>
      <path class="cls-2" d="M115.1,100.75c0-.68-.16-1.2-.49-1.56-.33-.36-.81-.54-1.45-.54s-1.13.18-1.47.55c-.34.36-.51.88-.51,1.55v4.36h-.74v-10.39h.74v4.19c.53-.61,1.22-.92,2.07-.92s1.45.23,1.91.69c.46.46.69,1.11.69,1.93v4.49h-.74v-4.36h-.01Z"/>
      <path class="cls-2" d="M123.44,104.41c-.3.3-.61.51-.93.62s-.72.17-1.22.17c-.53,0-.95-.05-1.26-.15-.32-.1-.59-.26-.81-.5-.17-.17-.29-.37-.38-.61s-.13-.5-.13-.76c0-.64.22-1.14.65-1.5.43-.35,1.03-.53,1.8-.53h2.28v-.79c0-.56-.15-.99-.44-1.28-.3-.29-.81-.44-1.54-.44-.5,0-.89.07-1.17.21-.29.14-.54.36-.77.69l-.54-.47c.3-.42.64-.7,1.03-.85s.87-.23,1.45-.23c.94,0,1.63.2,2.07.6s.66.97.66,1.71v4.81h-.74v-.7h-.01ZM121.25,101.75c-1.2,0-1.79.47-1.79,1.42,0,.47.15.81.44,1.04s.76.34,1.4.34c.32,0,.63-.03.93-.09s.57-.21.82-.45c.26-.24.39-.69.39-1.34v-.91h-2.19Z"/>
      <path class="cls-2" d="M131.82,104.41c-.3.3-.61.51-.93.62s-.72.17-1.22.17c-.53,0-.95-.05-1.26-.15-.32-.1-.59-.26-.81-.5-.17-.17-.29-.37-.38-.61s-.13-.5-.13-.76c0-.64.22-1.14.65-1.5.43-.35,1.03-.53,1.8-.53h2.28v-.79c0-.56-.15-.99-.44-1.28-.3-.29-.81-.44-1.54-.44-.5,0-.89.07-1.17.21-.29.14-.54.36-.77.69l-.54-.47c.3-.42.64-.7,1.03-.85s.87-.23,1.45-.23c.94,0,1.63.2,2.07.6s.66.97.66,1.71v4.81h-.74v-.7h-.01ZM129.63,101.75c-1.2,0-1.79.47-1.79,1.42,0,.47.15.81.44,1.04s.76.34,1.4.34c.32,0,.63-.03.93-.09.3-.06.57-.21.82-.45.26-.24.39-.69.39-1.34v-.91h-2.19,0Z"/>
      <path class="cls-2" d="M145.4,100.75c0-.68-.16-1.2-.49-1.56s-.81-.54-1.45-.54-1.1.18-1.45.53c-.36.35-.53.83-.53,1.45v4.49h-.74v-4.36c0-.68-.16-1.2-.49-1.56s-.81-.54-1.45-.54-1.13.18-1.47.55c-.34.36-.51.88-.51,1.55v4.36h-.74v-7.03h.74v.83c.53-.61,1.22-.92,2.09-.92.53,0,.98.11,1.36.33s.68.54.9.96c.26-.42.6-.74,1-.96s.87-.33,1.4-.33c.39,0,.74.06,1.05.17.31.12.58.28.8.5.49.47.73,1.12.73,1.96v4.49h-.75v-4.36h0Z"/>
      <path class="cls-2" d="M154.58,103.12c0,.64-.25,1.15-.75,1.52s-1.19.56-2.06.56c-.61,0-1.15-.08-1.61-.25s-.87-.42-1.23-.76l.51-.51c.55.57,1.31.86,2.31.86,1.41,0,2.12-.48,2.12-1.43,0-.37-.11-.65-.32-.83s-.55-.3-1.02-.35l-1.17-.1c-1.41-.12-2.12-.73-2.12-1.84,0-.61.23-1.1.69-1.46s1.07-.54,1.84-.54c.5,0,.95.07,1.37.2s.78.32,1.09.56l-.5.5c-.55-.4-1.2-.6-1.97-.6-.58,0-1.03.12-1.34.35-.31.23-.46.57-.46,1,0,.37.11.64.34.83s.59.3,1.09.35l1.14.1c.29.03.56.08.82.15.25.07.47.17.65.31s.32.32.43.54c.11.22.16.5.16.84h0Z"/>
      <path class="cls-2" d="M158.75,105.11l-2.57-7.03h.82l2.12,6.16,2.12-6.16h.82l-2.57,7.03h-.74Z"/>
      <path class="cls-2" d="M164.59,101.76c0,.91.19,1.6.58,2.08.38.47.96.71,1.72.71.42,0,.77-.07,1.06-.2s.58-.35.88-.65l.56.44c-.18.17-.35.33-.53.46s-.37.25-.57.34-.42.16-.65.2c-.23.04-.5.06-.79.06-.97,0-1.71-.31-2.23-.92-.51-.61-.77-1.51-.77-2.69s.25-2.04.74-2.66c.5-.63,1.19-.94,2.07-.94s1.58.3,2.07.9.74,1.44.74,2.53v.34h-4.89,0ZM168.73,101.16c0-.17-.02-.31-.03-.43s-.02-.23-.04-.33c0-.1-.04-.19-.07-.28-.03-.09-.07-.18-.12-.29-.15-.37-.4-.66-.72-.87-.33-.21-.69-.31-1.1-.31s-.77.1-1.1.31-.57.5-.72.87c-.04.12-.07.22-.1.31s-.05.18-.07.27c0,.09-.03.2-.04.31,0,.12-.03.26-.04.44h4.15Z"/>
      <path class="cls-2" d="M175.96,98.77c-.19-.08-.43-.12-.72-.12s-.57.06-.8.18-.43.27-.59.47c-.16.2-.28.42-.36.68s-.12.53-.12.81v4.33h-.74v-7.03h.74v.93c.2-.33.49-.58.87-.76.37-.18.77-.26,1.19-.26.34,0,.64.05.91.15s.53.27.78.53l-.54.54c-.21-.21-.42-.36-.61-.44h-.01Z"/>
      <path class="cls-2" d="M178.68,104.41l4.23-5.68h-4v-.66h4.79v.7l-4.25,5.68h4.25v.66h-5.02v-.7h0Z"/>
      <path class="cls-2" d="M191.89,101.6c0,.51-.05,1.01-.16,1.52-.11.51-.34.94-.71,1.31-.52.52-1.17.77-1.96.77s-1.44-.26-1.96-.77c-.37-.37-.61-.81-.72-1.31s-.16-1.01-.16-1.52.05-1.01.16-1.52c.11-.51.35-.94.72-1.31.52-.52,1.17-.77,1.96-.77s1.44.26,1.96.77c.37.37.61.81.71,1.31.11.5.16,1.01.16,1.52ZM191.15,101.6c0-.2,0-.41-.02-.63,0-.21-.04-.43-.08-.64-.04-.21-.11-.41-.19-.59-.08-.18-.2-.35-.34-.5-.4-.4-.88-.6-1.46-.6s-1.06.2-1.46.6c-.15.15-.26.31-.34.5-.08.18-.15.38-.19.59-.04.21-.07.42-.08.64,0,.21,0,.42,0,.63s0,.41,0,.63c0,.21.04.43.08.64.04.21.11.41.19.59.08.19.2.35.34.5.4.4.88.6,1.46.6s1.06-.2,1.46-.6c.15-.15.26-.31.34-.5.08-.18.15-.38.19-.59s.07-.42.08-.64c0-.21.02-.42.02-.63Z"/>
      <path class="cls-2" d="M198.39,98.77c-.19-.08-.43-.12-.72-.12s-.57.06-.8.18-.43.27-.59.47c-.16.2-.28.42-.36.68s-.12.53-.12.81v4.33h-.74v-7.03h.74v.93c.2-.33.49-.58.87-.76.37-.18.77-.26,1.19-.26.34,0,.64.05.91.15s.53.27.78.53l-.54.54c-.21-.21-.42-.36-.61-.44h-.01Z"/>
      <path class="cls-2" d="M206.33,105.51c0,.44-.06.84-.19,1.22-.13.37-.31.7-.56.97-.25.27-.55.48-.9.64-.36.15-.76.23-1.22.23-.26,0-.5-.02-.7-.05s-.4-.09-.58-.17c-.18-.08-.35-.18-.52-.29-.17-.12-.34-.26-.53-.42l.5-.5c.14.13.27.24.39.34.13.1.26.18.39.24.14.06.29.11.45.15.17.03.36.05.58.05.37,0,.69-.06.96-.18s.49-.29.66-.51.3-.48.39-.77c.08-.3.12-.62.12-.97v-1.25c-.31.41-.64.68-.97.8-.34.13-.71.19-1.12.19-.37,0-.7-.06-1-.17s-.54-.26-.72-.45c-.36-.36-.6-.81-.72-1.35s-.18-1.09-.18-1.64.06-1.1.18-1.64.36-.99.72-1.35c.18-.18.43-.33.72-.45s.63-.17,1-.17c.41,0,.78.06,1.12.19s.66.39.97.8v-.9h.74v7.43l.02-.02ZM205.59,101.6c0-.36-.02-.72-.07-1.07-.04-.36-.14-.67-.28-.95s-.34-.5-.6-.67c-.26-.17-.61-.26-1.04-.26s-.77.09-1.04.26c-.26.17-.46.39-.61.67-.14.28-.23.59-.28.95-.04.36-.07.71-.07,1.07s.02.73.07,1.08c.04.35.14.66.28.94s.34.5.61.67.61.26,1.04.26.77-.09,1.04-.26c.26-.17.46-.39.6-.67s.23-.59.28-.94c.04-.35.07-.71.07-1.08Z"/>
      <path class="cls-2" d="M209.81,94.72h.92v.92h-.92v-.92ZM209.9,98.08h.74v7.03h-.74v-7.03Z"/>
      <path class="cls-2" d="M218.87,100.75c0-.68-.16-1.2-.49-1.56s-.81-.54-1.45-.54-1.13.18-1.47.55c-.34.36-.51.88-.51,1.55v4.36h-.74v-7.03h.74v.83c.53-.61,1.22-.92,2.07-.92.79,0,1.41.22,1.87.67.49.47.73,1.12.73,1.96v4.49h-.74v-4.36h0Z"/>
      <path class="cls-2" d="M228.13,105.51c0,.44-.06.84-.19,1.22-.13.37-.31.7-.56.97-.25.27-.55.48-.9.64-.36.15-.76.23-1.22.23-.26,0-.5-.02-.7-.05s-.4-.09-.58-.17c-.18-.08-.35-.18-.52-.29-.17-.12-.34-.26-.53-.42l.5-.5c.14.13.27.24.39.34.13.1.26.18.39.24.14.06.29.11.45.15.17.03.36.05.58.05.37,0,.69-.06.96-.18s.49-.29.66-.51.3-.48.39-.77c.08-.3.12-.62.12-.97v-1.25c-.31.41-.64.68-.97.8-.34.13-.71.19-1.12.19-.37,0-.7-.06-1-.17s-.54-.26-.72-.45c-.36-.36-.6-.81-.72-1.35s-.18-1.09-.18-1.64.06-1.1.18-1.64.36-.99.72-1.35c.18-.18.43-.33.72-.45s.63-.17,1-.17c.41,0,.78.06,1.12.19s.66.39.97.8v-.9h.74v7.43l.02-.02ZM227.39,101.6c0-.36-.02-.72-.07-1.07-.04-.36-.14-.67-.28-.95s-.34-.5-.6-.67c-.26-.17-.61-.26-1.04-.26s-.77.09-1.04.26c-.26.17-.46.39-.61.67-.14.28-.23.59-.28.95-.04.36-.07.71-.07,1.07s.02.73.07,1.08c.04.35.14.66.28.94s.34.5.61.67.61.26,1.04.26.77-.09,1.04-.26c.26-.17.46-.39.6-.67s.23-.59.28-.94c.04-.35.07-.71.07-1.08Z"/>
    </g>
  </g>
</svg>